<svg width="76" height="76" viewBox="0 0 76 76" fill="none" xmlns="http://www.w3.org/2000/svg">
<g clip-path="url(#clip0_508_973)">
<path d="M54.3327 10.9624H42.6673H33.3328H21.6672L10 22.5004V30.6481V64.036H53.1673C60.2544 64.036 66 58.354 66 51.3436V32.2241V22.5004L54.3327 10.9624ZM53.3672 13.2702L62.6999 22.5004H44.6104L43.0552 13.2702H53.3672ZM33.3328 24.8073H42.6673V31.4576L41.377 30.8197L40.3328 30.3042L39.2903 30.8197L38 31.4577L36.7097 30.8198L35.6672 30.3043L34.623 30.8198L33.3328 31.4577V24.8073ZM40.69 13.2702L42.2452 22.5004H33.7549L35.3101 13.2702H40.69ZM22.6328 13.2702H32.9448L31.388 22.5004H13.3001L22.6328 13.2702ZM60.5911 58.6852C58.6087 60.6474 55.9717 61.7273 53.1673 61.7273C50.3611 61.7273 47.7258 60.6474 45.7417 58.6852C43.7593 56.7248 42.6673 54.1171 42.6673 51.3436C42.6673 48.5702 43.7593 45.9625 45.7417 44.0021C47.7258 42.0399 50.361 40.96 53.1673 40.96C55.9717 40.96 58.6087 42.0399 60.5911 44.0021C62.5752 45.9625 63.6673 48.5702 63.6673 51.3436C63.6673 54.1171 62.5752 56.7248 60.5911 58.6852ZM53.1673 38.6522C46.0784 38.6522 40.3328 44.3333 40.3328 51.3436C40.3328 55.6364 42.4895 59.4306 45.7878 61.7273H12.3327V24.8073H31V32.8841L33.3328 34.0375L35.6672 32.8841L38 34.0375L40.3328 32.8841L42.6673 34.0375L45 32.8841V24.8073H63.6673V44.046C61.3448 40.7842 57.508 38.6522 53.1673 38.6522Z" fill="white"/>
<path d="M27.5 52.4971H15.8327C15.1884 52.4971 14.6672 53.0142 14.6672 53.6531C14.6672 54.2886 15.1885 54.8057 15.8327 54.8057H27.5C28.1443 54.8057 28.6672 54.2886 28.6672 53.6531C28.6672 53.0143 28.1443 52.4971 27.5 52.4971Z" fill="white"/>
<path d="M21.6672 57.1145H15.8327C15.1884 57.1145 14.6672 57.63 14.6672 58.2671C14.6672 58.9042 15.1885 59.4197 15.8327 59.4197H21.6672C22.3116 59.4197 22.8327 58.9042 22.8327 58.2671C22.8327 57.63 22.3115 57.1145 21.6672 57.1145Z" fill="white"/>
<path d="M58.9402 55.4244L54.3328 50.868V44.4221C54.3328 43.7849 53.8115 43.2695 53.1673 43.2695C52.523 43.2695 52 43.7849 52 44.4221V51.3446C52 51.6624 52.1299 51.953 52.3418 52.1591L57.291 57.0535V57.0553C57.7473 57.5065 58.4856 57.5065 58.9419 57.0553C59.3965 56.604 59.3965 55.8739 58.9419 55.4244H58.9402Z" fill="white"/>
</g>
<defs>
<clipPath id="clip0_508_973">
<rect width="56" height="53" fill="white" transform="translate(10 11)"/>
</clipPath>
</defs>
</svg>
