<svg width="76" height="76" viewBox="0 0 76 76" fill="none" xmlns="http://www.w3.org/2000/svg">
<g clip-path="url(#clip0_508_962)">
<path d="M63.591 12.226C63.4646 12.133 63.3181 12.071 63.1633 12.0452C63.0085 12.0193 62.8498 12.0302 62.7 12.077C58.5329 13.1638 54.1653 13.2303 49.967 12.271C45.7126 11.3814 41.7898 9.32494 38.638 6.332C38.4387 6.12736 38.1675 6.0083 37.882 6C37.7396 6.00171 37.5992 6.03382 37.4702 6.09418C37.3412 6.15454 37.2266 6.24176 37.134 6.35C37.098 6.391 33.465 10.539 26.034 12.27C21.8354 13.2292 17.4676 13.163 13.3 12.077C13.1502 12.0299 12.9914 12.0187 12.8365 12.0444C12.6816 12.0701 12.535 12.1318 12.4084 12.2247C12.2818 12.3176 12.1788 12.439 12.1079 12.5791C12.037 12.7192 12 12.874 12 13.031V47.622C12.0071 50.2625 12.7339 52.8512 14.1022 55.1095C15.4706 57.3678 17.4287 59.2104 19.766 60.439L37.422 69.882C37.5666 69.9589 37.7278 69.9991 37.8915 69.9991C38.0552 69.9991 38.2164 69.9589 38.361 69.882L56.232 60.44C58.5698 59.2116 60.5284 57.369 61.8972 55.1104C63.2659 52.8519 63.9929 50.2629 64 47.622V13.031C63.9997 12.8741 63.9626 12.7196 63.8915 12.5797C63.8205 12.4399 63.7175 12.3187 63.591 12.226ZM62 47.622C61.9931 49.8992 61.3657 52.1314 60.1852 54.0787C59.0047 56.026 57.3158 57.6147 55.3 58.674L37.9 67.867L20.71 58.675C18.6923 57.6169 17.0013 56.0285 15.819 54.081C14.6367 52.1334 14.0078 49.9003 14 47.622V14.317C18.1204 15.1887 22.3811 15.1546 26.487 14.217C30.7346 13.3081 34.6718 11.3073 37.91 8.412C41.2308 11.2864 45.2189 13.2829 49.51 14.219C53.617 15.1565 57.8788 15.1899 62 14.317V47.622Z" fill="white"/>
<path d="M38.523 11.472C38.3511 11.3481 38.1443 11.282 37.9324 11.2832C37.7205 11.2845 37.5144 11.353 37.344 11.479C34.2313 13.7311 30.6928 15.3261 26.944 16.167C23.7162 16.9003 20.3924 17.1157 17.097 16.805C16.9584 16.7915 16.8186 16.8075 16.6866 16.8518C16.5546 16.896 16.4334 16.9677 16.331 17.062C16.2275 17.1551 16.1446 17.2689 16.0876 17.396C16.0306 17.5231 16.0007 17.6607 16 17.8V47.622C16.0087 49.5379 16.5396 51.4153 17.5354 53.0521C18.5313 54.689 19.9545 56.0234 21.652 56.912L37.434 65.352C37.5788 65.4296 37.7407 65.4702 37.905 65.47C38.0681 65.4698 38.2287 65.43 38.373 65.354L54.354 56.909C56.0504 56.0205 57.4725 54.6863 58.4674 53.0499C59.4622 51.4136 59.9921 49.537 60 47.622V26.061C60 25.7957 59.8946 25.5414 59.7071 25.3538C59.5196 25.1663 59.2652 25.061 59 25.061C58.7348 25.061 58.4804 25.1663 58.2929 25.3538C58.1054 25.5414 58 25.7957 58 26.061V47.622C57.9917 49.1737 57.5606 50.6939 56.7531 52.019C55.9456 53.3441 54.7923 54.4242 53.417 55.143L37.908 63.337L22.593 55.147C21.2156 54.4288 20.0601 53.3486 19.2508 52.0227C18.4416 50.6968 18.0091 49.1753 18 47.622V18.881C21.1539 19.0765 24.3195 18.8182 27.4 18.114C31.1763 17.2602 34.7563 15.6975 37.95 13.509C41.1903 15.6858 44.804 17.2468 48.61 18.114C51.6904 18.8184 54.8561 19.0767 58.01 18.881V21.958C58.01 22.2232 58.1154 22.4775 58.3029 22.6651C58.4904 22.8526 58.7448 22.958 59.01 22.958C59.2752 22.958 59.5296 22.8526 59.7171 22.6651C59.9046 22.4775 60.01 22.2232 60.01 21.958V17.8C60.0099 17.6608 59.9808 17.5232 59.9245 17.396C59.8682 17.2687 59.7859 17.1546 59.683 17.061C59.5809 16.9662 59.4598 16.8942 59.3277 16.8499C59.1956 16.8056 59.0556 16.7899 58.917 16.804C55.6216 17.1148 52.2977 16.8995 49.07 16.166C45.2797 15.3105 41.6956 13.7153 38.523 11.472Z" fill="white"/>
<path d="M55.0001 35C55.0001 34.2044 54.684 33.4413 54.1214 32.8787C53.5588 32.3161 52.7957 32 52.0001 32H43.1941C44.5721 30.23 46.3071 27.281 45.9941 23.919C45.7851 21.611 44.3401 20 42.4831 20C39.6391 20 39.1511 22.766 38.9671 23.807C38.8277 24.5213 38.5284 25.1947 38.0916 25.7768C37.6548 26.3589 37.0919 26.8345 36.4451 27.168C35.9451 27.498 35.5601 27.714 35.2171 27.903C34.5055 28.2603 33.8559 28.7296 33.2931 29.293C32.4931 30.0795 31.8306 30.9945 31.3331 32H29.0001V31.04C29.0001 30.7748 28.8947 30.5204 28.7072 30.3329C28.5197 30.1454 28.2653 30.04 28.0001 30.04H21.9441C21.6789 30.04 21.4245 30.1454 21.237 30.3329C21.0494 30.5204 20.9441 30.7748 20.9441 31.04V46.94C20.9441 47.2052 21.0494 47.4596 21.237 47.6471C21.4245 47.8346 21.6789 47.94 21.9441 47.94H28.0001C28.2653 47.94 28.5197 47.8346 28.7072 47.6471C28.8947 47.4596 29.0001 47.2052 29.0001 46.94V46H31.6491L36.3751 49.781C36.5525 49.9229 36.7729 50.0001 37.0001 50H49.0001C49.524 50 50.0387 49.8628 50.4931 49.6021C50.9475 49.3414 51.3257 48.9662 51.59 48.5139C51.8544 48.0616 51.9957 47.548 52 47.0242C52.0042 46.5003 51.8711 45.9845 51.6141 45.528C52.2604 45.1154 52.7242 44.4709 52.9101 43.727C53.0961 42.9831 52.9902 42.1962 52.6141 41.528C53.2604 41.1154 53.7242 40.4709 53.9101 39.727C54.0961 38.9831 53.9902 38.1962 53.6141 37.528C54.0388 37.2569 54.3884 36.8832 54.6307 36.4414C54.8729 35.9996 55 35.5039 55.0001 35ZM27.0001 45.939H22.9441V32.04H27.0001V45.939ZM52.0001 36H51.0001C50.7349 36 50.4805 36.1054 50.293 36.2929C50.1054 36.4804 50.0001 36.7348 50.0001 37C50.0001 37.2652 50.1054 37.5196 50.293 37.7071C50.4805 37.8946 50.7349 38 51.0001 38C51.2653 38 51.5197 38.1054 51.7072 38.2929C51.8947 38.4804 52.0001 38.7348 52.0001 39C52.0001 39.2652 51.8947 39.5196 51.7072 39.7071C51.5197 39.8946 51.2653 40 51.0001 40H50.0001C49.7349 40 49.4805 40.1054 49.293 40.2929C49.1054 40.4804 49.0001 40.7348 49.0001 41C49.0001 41.2652 49.1054 41.5196 49.293 41.7071C49.4805 41.8946 49.7349 42 50.0001 42C50.2653 42 50.5197 42.1054 50.7072 42.2929C50.8947 42.4804 51.0001 42.7348 51.0001 43C51.0001 43.2652 50.8947 43.5196 50.7072 43.7071C50.5197 43.8946 50.2653 44 50.0001 44H49.0001C48.7349 44 48.4805 44.1054 48.293 44.2929C48.1054 44.4804 48.0001 44.7348 48.0001 45C48.0001 45.2652 48.1054 45.5196 48.293 45.7071C48.4805 45.8946 48.7349 46 49.0001 46C49.2653 46 49.5197 46.1054 49.7072 46.2929C49.8947 46.4804 50.0001 46.7348 50.0001 47C50.0001 47.2652 49.8947 47.5196 49.7072 47.7071C49.5197 47.8946 49.2653 48 49.0001 48H37.3511L32.6251 44.219C32.4477 44.0771 32.2273 43.9999 32.0001 44H29.0001V34H32.0001C32.2143 33.9986 32.4225 33.929 32.5946 33.8014C32.7667 33.6737 32.8936 33.4946 32.9571 33.29C33.3437 32.311 33.9412 31.4291 34.7071 30.707C35.1399 30.2777 35.6393 29.9215 36.1861 29.652C36.5681 29.441 37.0011 29.201 37.5551 28.832C38.4306 28.3521 39.1883 27.6833 39.7733 26.8741C40.3582 26.065 40.7558 25.1358 40.9371 24.154C41.2601 22.322 41.6931 22 42.4831 22C43.2731 22 43.8921 22.864 44.0061 24.1C44.4061 28.437 40.3181 32.22 40.2761 32.257C40.1256 32.3926 40.0198 32.5706 39.9728 32.7676C39.9257 32.9646 39.9395 33.1713 40.0125 33.3602C40.0855 33.5492 40.2141 33.7115 40.3813 33.8257C40.5486 33.94 40.7466 34.0008 40.9491 34H52.0001C52.2653 34 52.5197 34.1054 52.7072 34.2929C52.8947 34.4804 53.0001 34.7348 53.0001 35C53.0001 35.2652 52.8947 35.5196 52.7072 35.7071C52.5197 35.8946 52.2653 36 52.0001 36Z" fill="white"/>
</g>
<defs>
<clipPath id="clip0_508_962">
<rect width="64" height="64" fill="white" transform="translate(6 6)"/>
</clipPath>
</defs>
</svg>
