<svg width="76" height="76" viewBox="0 0 76 76" fill="none" xmlns="http://www.w3.org/2000/svg">
<path d="M20.5339 50.983C20.9001 51.1751 21.263 51.2726 21.6123 51.2723C22.1194 51.2723 22.5711 51.0676 22.8848 50.6957C23.1366 50.3964 23.4069 49.8596 23.259 49.0035L22.8458 46.6001L24.5981 44.8976C25.2074 44.3067 25.4333 43.5885 25.2194 42.9273C25.0049 42.2659 24.3998 41.8169 23.5586 41.6953L21.133 41.344L20.0486 39.1551C19.6727 38.3957 19.0589 37.9602 18.364 37.9602C17.6685 37.9602 17.0542 38.396 16.6794 39.1551L15.5955 41.3443L13.1704 41.6953C12.3286 41.8169 11.7231 42.2662 11.5086 42.9279C11.2941 43.5892 11.5205 44.3072 12.1294 44.8974L13.8822 46.6004L13.4694 49.0019C13.321 49.8586 13.5902 50.3956 13.8426 50.6954C14.3713 51.3243 15.2954 51.4537 16.1929 50.983L18.364 49.8461L20.5339 50.983ZM15.7726 48.6989L16.2666 45.8237L14.1752 43.7916L17.0666 43.3728L18.364 40.7525L19.6618 43.3731L22.5527 43.7916L20.4613 45.8239L20.9559 48.6994L18.364 47.3414L15.7726 48.6989Z" fill="white"/>
<path d="M12.4564 35.7966L12.1076 33.67L13.5771 32.1718C14.1345 31.6028 14.3333 30.9151 14.1231 30.2852C13.9146 29.662 13.354 29.2376 12.5853 29.1213L10.5969 28.8186L9.69825 26.9133C9.20586 25.87 8.41878 25.7573 8.10301 25.7573C7.78667 25.7573 6.99904 25.87 6.50833 26.9133L5.60915 28.8186L3.62065 29.1211C2.85094 29.2378 2.28978 29.6625 2.08177 30.2862C1.87161 30.9165 2.07097 31.6038 2.62885 32.172L4.09789 33.67L3.74906 35.7956C3.61361 36.6162 3.8742 37.1289 4.11686 37.4143C4.62439 38.0132 5.50354 38.1337 6.33604 37.6765L8.10246 36.7048L9.86935 37.6765C10.2117 37.8647 10.554 37.9601 10.8872 37.9601C11.3623 37.9601 11.7885 37.7667 12.087 37.4155C12.3291 37.1305 12.5902 36.6184 12.4564 35.7966ZM9.73612 32.9193L10.1239 35.2845L8.10246 34.1725L6.08201 35.2824L6.46933 32.9193L4.77332 31.19L7.11175 30.8341L8.10301 28.7325L9.09426 30.8341L11.431 31.1914L9.73612 32.9193Z" fill="white"/>
<path d="M61.8303 41.6953L59.4047 41.3443L58.3213 39.1557C57.9459 38.396 57.3317 37.9602 56.6362 37.9602C55.9412 37.9602 55.3275 38.3957 54.9516 39.1549L53.8672 41.344L51.4416 41.6953C50.6004 41.8169 49.9953 42.2659 49.7808 42.9273C49.5669 43.5885 49.7927 44.3067 50.4016 44.8974L52.1544 46.6001L51.7411 49.0033C51.5932 49.8596 51.8635 50.3964 52.1154 50.6959C52.6452 51.3232 53.5682 51.4537 54.4668 50.983L56.6362 49.8461L58.8072 50.983C59.1734 51.1751 59.5363 51.2723 59.8857 51.2723C60.3927 51.2723 60.8444 51.0676 61.1575 50.6954C61.4099 50.3959 61.6791 49.8588 61.5307 49.0035L61.118 46.6004L62.8703 44.8979C63.4797 44.3072 63.7061 43.5892 63.4916 42.9279C63.2771 42.2662 62.6715 41.8169 61.8303 41.6953ZM58.7336 45.8237L59.2276 48.6989L56.6362 47.3414L54.0443 48.6994L54.5389 45.8239L52.4474 43.7916L55.3384 43.3731L56.6362 40.7525L57.9335 43.3728L60.825 43.7916L58.7336 45.8237Z" fill="white"/>
<path d="M72.9184 30.2862C72.7104 29.6625 72.1492 29.2378 71.3801 29.1213L69.391 28.8186L68.4924 26.9146C68.0011 25.87 67.2135 25.7573 66.8972 25.7573C66.5814 25.7573 65.7943 25.87 65.3019 26.9135L64.4033 28.8186L62.4154 29.1211C61.6462 29.2376 61.0856 29.662 60.877 30.2852C60.6669 30.9151 60.8657 31.6028 61.4236 32.172L62.8926 33.67L62.5438 35.798C62.41 36.6184 62.6711 37.1305 62.9132 37.4157C63.4218 38.0126 64.2999 38.1326 65.1308 37.6765L66.8977 36.7048L68.6646 37.6768C69.007 37.8647 69.3493 37.9601 69.6824 37.9601C70.1586 37.9601 70.5849 37.7664 70.8833 37.4143C71.126 37.1289 71.3865 36.6162 71.2511 35.7966L70.9023 33.67L72.3708 32.1726C72.9292 31.6038 73.1285 30.9165 72.9184 30.2862ZM68.5308 32.9193L68.9187 35.2842L66.8977 34.1725L64.8762 35.2824L65.264 32.9193L63.5681 31.19L65.9059 30.8341L66.8972 28.7325L67.8884 30.8341L70.2257 31.1914L68.5308 32.9193Z" fill="white"/>
<path d="M37.5 31.8588C42.7086 31.8588 46.9294 27.637 46.9294 22.4283C46.9294 17.2204 42.7086 13 37.5 13C32.2934 13 28.0706 17.2204 28.0706 22.4283C28.0706 27.637 32.2934 31.8588 37.5 31.8588ZM37.5 15.2187C41.4758 15.2187 44.7107 18.453 44.7107 22.4283C44.7107 26.405 41.4758 29.6401 37.5 29.6401C33.5241 29.6401 30.2892 26.405 30.2892 22.4283C30.2892 18.453 33.5241 15.2187 37.5 15.2187Z" fill="white"/>
<path d="M43.6983 55.3101L46.6136 52.3355C47.3714 51.5636 47.6525 50.6609 47.3855 49.8587C47.1217 49.0684 46.3759 48.5249 45.3396 48.3672L41.3491 47.7611L39.5562 43.9575C38.8916 42.5497 37.897 42.3975 37.5006 42.3975C37.103 42.3975 36.1079 42.5497 35.446 43.958L33.652 47.7608L29.6609 48.3672C28.6242 48.5249 27.8777 49.0689 27.6145 49.8598C27.3469 50.6623 27.6286 51.5647 28.3853 52.3347L31.3022 55.3104L30.6127 59.5213C30.4258 60.6542 30.7595 61.3315 31.072 61.7002C31.7112 62.4536 32.8286 62.5809 33.9423 61.9686L37.5006 60.012L41.0577 61.9686C41.5365 62.2321 42.0056 62.3659 42.4509 62.3656C43.0391 62.3656 43.5634 62.1294 43.9275 61.7002C44.2405 61.3315 44.5748 60.6545 44.3884 59.5229L43.6983 55.3101ZM42.199 59.8823C42.2109 59.9549 42.2174 60.0183 42.2206 60.0724C42.192 60.0592 42.1611 60.0432 42.127 60.0245L37.5006 57.4803L32.8736 60.0242C32.8395 60.0429 32.8086 60.0586 32.7804 60.0722C32.7831 60.0177 32.7902 59.9543 32.8021 59.8815L33.6737 54.5596L29.9686 50.7806C29.9009 50.711 29.8505 50.6498 29.8148 50.5992C29.863 50.5853 29.9226 50.5718 29.9946 50.561L35.1546 49.7769L37.4529 44.9032C37.4697 44.868 37.4854 44.8364 37.5011 44.8079C37.5168 44.8366 37.5331 44.8686 37.5498 44.9043L39.8465 49.7766L45.0059 50.561C45.078 50.5718 45.1375 50.5853 45.1852 50.5992C45.1489 50.6501 45.0985 50.7116 45.0298 50.7817L41.3269 54.5598L42.199 59.8823Z" fill="white"/>
<path d="M22.3928 38.889C22.9886 37.816 23.683 36.8657 24.4842 36.0429C26.2397 34.2396 28.5618 33.0049 31.4164 32.3432C30.63 31.8587 29.8981 31.2937 29.2498 30.6421C25.4375 31.8814 22.8261 34.101 21.051 36.8339C21.44 37.2004 21.7774 37.6459 22.0369 38.1705L22.3928 38.889Z" fill="white"/>
<path d="M20.4288 53.9559C20.0664 53.9559 19.7777 53.6693 19.7718 53.4218C19.7685 53.3015 19.7696 53.1872 19.7669 53.0681C19.6791 53.0282 19.5914 52.9938 19.5042 52.9484L18.3634 52.3506L17.5396 52.7823C17.5433 53.0163 17.5476 53.2498 17.5536 53.4808C17.5926 54.9701 18.9067 56.1745 20.4288 56.1745H28.913L28.9314 56.0608L26.8677 53.9559H20.4288Z" fill="white"/>
<path d="M43.459 32.4194C46.2426 33.1129 48.529 34.3588 50.2867 36.1515C51.1263 37.0081 51.8586 38.004 52.4865 39.1323L52.9631 38.1703C53.1846 37.7226 53.4658 37.3353 53.7837 37.0013C51.9908 34.27 49.3865 32.0339 45.637 30.7485C44.9822 31.3893 44.2493 31.9462 43.459 32.4194Z" fill="white"/>
<path d="M55.4966 52.9481C55.4132 52.992 55.326 53.0187 55.2415 53.057C55.2398 53.1848 55.242 53.3083 55.2393 53.4372C55.2344 53.672 54.9452 53.9559 54.5931 53.9559H48.1321L46.0693 56.0605L46.0878 56.1745H54.5931C56.113 56.1745 57.4282 54.9701 57.4575 53.4808C57.4618 53.2506 57.4645 53.0182 57.4661 52.7853L56.6368 52.3506L55.4966 52.9481Z" fill="white"/>
</svg>
