<svg width="76" height="76" viewBox="0 0 76 76" fill="none" xmlns="http://www.w3.org/2000/svg">
<g clip-path="url(#clip0_508_945)">
<path d="M59.93 24.8999C58.36 24.8999 57.05 26.0799 56.88 27.6399L55.53 39.8399C54.71 39.9199 53.94 40.2999 53.39 40.9299L49.4 45.5699C49.02 46.0199 48.56 46.3899 48.05 46.6899L45.85 47.9499C43.62 49.2299 42.23 51.6199 42.23 54.1999V61.5799C42.23 62.1299 42.68 62.5799 43.23 62.5799C43.78 62.5799 44.23 62.1299 44.23 61.5799V54.1999C44.23 52.3399 45.23 50.6099 46.84 49.6899L49.04 48.4299C49.75 48.0199 50.38 47.4999 50.91 46.8799L54.9 42.2399C55.14 41.9599 55.47 41.8099 55.83 41.8099C56.19 41.8099 56.52 41.9599 56.76 42.2299C57.15 42.6799 57.17 43.3399 56.8 43.8099L52.64 49.0399C52.3 49.4699 52.37 50.0999 52.8 50.4499C53.23 50.7899 53.86 50.7199 54.2 50.2899L58.36 45.0599C59.33 43.8399 59.29 42.0999 58.27 40.9199C58.04 40.6599 57.77 40.4599 57.49 40.2899L58.86 27.8699C58.92 27.3299 59.38 26.9099 59.93 26.9099C60.52 26.9099 61 27.3899 61 27.9799V45.2699C61 45.9799 60.75 46.6699 60.29 47.2099L54.15 54.4599C52.71 56.1599 51.92 58.3199 51.92 60.5399V61.5699C51.92 62.1199 52.37 62.5699 52.92 62.5699C53.47 62.5699 53.92 62.1199 53.92 61.5699V60.5399C53.92 58.7899 54.54 57.0899 55.68 55.7499L61.82 48.4999C62.59 47.5999 63.01 46.4499 63.01 45.2599V27.9699C63 26.2699 61.62 24.8999 59.93 24.8999Z" fill="white"/>
<path d="M30.16 47.9399L27.96 46.6799C27.45 46.3799 26.99 46.0099 26.61 45.5599L22.62 40.9199C22.07 40.2899 21.3 39.9099 20.48 39.8299L19.13 27.6299C18.96 26.0699 17.64 24.8899 16.08 24.8899C14.38 24.8999 13 26.2699 13 27.9699V45.2599C13 46.4399 13.42 47.5899 14.19 48.4999L20.33 55.7499C21.46 57.0899 22.09 58.7899 22.09 60.5399V61.5699C22.09 62.1199 22.54 62.5699 23.09 62.5699C23.64 62.5699 24.09 62.1199 24.09 61.5699V60.5399C24.09 58.3099 23.3 56.1499 21.86 54.4599L15.72 47.2099C15.25 46.6699 15 45.9699 15 45.2599V27.9699C15 27.3799 15.48 26.8999 16.07 26.8999C16.62 26.8999 17.08 27.3099 17.14 27.8599L18.51 40.2799C18.22 40.4499 17.95 40.6499 17.73 40.9099C16.71 42.0899 16.67 43.8299 17.64 45.0499L21.8 50.2799C22.14 50.7099 22.77 50.7799 23.2 50.4399C23.63 50.0999 23.7 49.4699 23.36 49.0299L19.2 43.7999C18.83 43.3299 18.85 42.6699 19.24 42.2199C19.48 41.9499 19.81 41.7999 20.17 41.7999C20.53 41.7999 20.86 41.9499 21.1 42.2299L25.09 46.8699C25.62 47.4899 26.25 48.0099 26.96 48.4199L29.16 49.6799C30.77 50.5999 31.77 52.3299 31.77 54.1899V61.5699C31.77 62.1199 32.22 62.5699 32.77 62.5699C33.32 62.5699 33.77 62.1199 33.77 61.5699V54.1899C33.78 51.6099 32.39 49.2199 30.16 47.9399Z" fill="white"/>
<path d="M49.0399 40.6599C49.0499 40.6499 49.0599 40.6299 49.0699 40.6199C52.0199 37.7399 53.8599 33.7299 53.8599 29.2899C53.8599 24.8499 52.0199 20.8399 49.0699 17.9599C49.0599 17.9499 49.0599 17.9299 49.0399 17.9199C49.0199 17.8999 48.9899 17.8899 48.9599 17.8699C46.1199 15.1299 42.2599 13.4299 37.9999 13.4299C33.7499 13.4299 29.8999 15.1199 27.0499 17.8499C27.0199 17.8699 26.9799 17.8899 26.9599 17.9199C26.9499 17.9299 26.9399 17.9499 26.9299 17.9699C23.9899 20.8499 22.1499 24.8599 22.1499 29.2999C22.1499 33.7399 23.9899 37.7399 26.9299 40.6299C26.9399 40.6499 26.9499 40.6599 26.9599 40.6799C26.9899 40.7099 27.0199 40.7199 27.0499 40.7399C29.8999 43.4699 33.7599 45.1599 38.0099 45.1599C42.2699 45.1599 46.1299 43.4699 48.9799 40.7299C48.9899 40.6899 49.0199 40.6899 49.0399 40.6599ZM33.8199 16.0799C33.0399 17.1999 32.3699 18.6499 31.8499 20.3399C30.8999 19.8699 30.0099 19.2899 29.1799 18.5999C30.5399 17.4899 32.1099 16.6199 33.8199 16.0799ZM27.7399 19.9999C28.8399 20.9399 30.0499 21.7099 31.3499 22.3099C30.9599 24.1199 30.7199 26.1299 30.6599 28.2899H24.1899C24.4199 25.1099 25.7299 22.2299 27.7399 19.9999ZM24.1899 30.2899H30.6599C30.7199 32.4499 30.9599 34.4599 31.3499 36.2699C30.0599 36.8699 28.8499 37.6399 27.7399 38.5799C25.7299 36.3499 24.4199 33.4699 24.1899 30.2899ZM29.1799 39.9699C30.0099 39.2799 30.8999 38.7099 31.8499 38.2299C32.3699 39.9199 33.0299 41.3699 33.8199 42.4899C32.1099 41.9599 30.5399 41.0899 29.1799 39.9699ZM36.9999 42.8599C35.7699 42.1699 34.5699 40.2499 33.7399 37.4699C34.7899 37.1299 35.8799 36.9199 36.9999 36.8399V42.8599ZM36.9999 34.8399C35.7199 34.9199 34.4599 35.1499 33.2499 35.5199C32.9299 33.9499 32.7199 32.1999 32.6599 30.2899H36.9999V34.8399ZM36.9999 28.2899H32.6599C32.7199 26.3799 32.9199 24.6199 33.2499 23.0599C34.4599 23.4399 35.7099 23.6599 36.9999 23.7399V28.2899ZM36.9999 21.7399C35.8799 21.6599 34.7899 21.4499 33.7399 21.1099C34.5699 18.3299 35.7699 16.4099 36.9999 15.7199V21.7399ZM51.8099 28.2899H45.3399C45.2799 26.1299 45.0399 24.1199 44.6499 22.3099C45.9399 21.7099 47.1499 20.9399 48.2599 19.9999C50.2799 22.2299 51.5799 25.1099 51.8099 28.2899ZM46.8199 18.6099C45.9899 19.2899 45.0999 19.8699 44.1499 20.3399C43.6299 18.6499 42.9699 17.1999 42.1799 16.0799C43.8899 16.6199 45.4599 17.4899 46.8199 18.6099ZM38.9999 15.7199C40.2299 16.4099 41.4399 18.3299 42.2599 21.1099C41.2099 21.4499 40.1199 21.6599 38.9999 21.7399V15.7199ZM38.9999 23.7399C40.2799 23.6599 41.5399 23.4299 42.7499 23.0599C43.0699 24.6299 43.2799 26.3799 43.3399 28.2899H38.9999V23.7399ZM38.9999 30.2899H43.3399C43.2799 32.1999 43.0799 33.9599 42.7499 35.5199C41.5399 35.1399 40.2899 34.9199 38.9999 34.8399V30.2899ZM38.9999 42.8599V36.8399C40.1199 36.9199 41.2099 37.1299 42.2599 37.4699C41.4399 40.2499 40.2299 42.1699 38.9999 42.8599ZM42.1799 42.4999C42.9599 41.3799 43.6299 39.9299 44.1499 38.2399C45.0999 38.7099 45.9899 39.2899 46.8199 39.9699C45.4599 41.0899 43.8899 41.9599 42.1799 42.4999ZM44.6499 36.2699C45.0399 34.4599 45.2799 32.4499 45.3399 30.2899H51.8099C51.5799 33.4699 50.2799 36.3499 48.2599 38.5799C47.1499 37.6399 45.9399 36.8599 44.6499 36.2699Z" fill="white"/>
</g>
<defs>
<clipPath id="clip0_508_945">
<rect width="60" height="60" fill="white" transform="translate(8 8)"/>
</clipPath>
</defs>
</svg>
