<svg width="40" height="40" viewBox="0 0 40 40" fill="none" xmlns="http://www.w3.org/2000/svg">
<circle cx="50%" cy="50%" r="50%" fill="#3A6FE8"/>
<path d="M23.7126 16.2126C23.8887 16.045 24.123 15.9523 24.3661 15.9541C24.6092 15.956 24.8421 16.0522 25.0156 16.2225C25.1892 16.3927 25.2898 16.6238 25.2962 16.8668C25.3026 17.1099 25.2144 17.3459 25.0501 17.5251L20.0626 23.7626C19.9768 23.855 19.8733 23.9291 19.7582 23.9806C19.6432 24.032 19.5189 24.0597 19.3929 24.0621C19.2669 24.0644 19.1417 24.0413 19.0248 23.9941C18.9079 23.947 18.8017 23.8767 18.7126 23.7876L15.4051 20.4801C15.313 20.3943 15.2391 20.2908 15.1878 20.1758C15.1366 20.0608 15.1091 19.9366 15.1068 19.8108C15.1046 19.6849 15.1278 19.5598 15.1749 19.4431C15.2221 19.3264 15.2923 19.2203 15.3813 19.1313C15.4703 19.0423 15.5763 18.9721 15.6931 18.925C15.8098 18.8778 15.9348 18.8546 16.0607 18.8569C16.1866 18.8591 16.3107 18.8866 16.4257 18.9379C16.5407 18.9891 16.6442 19.063 16.7301 19.1551L19.3476 21.7714L23.6888 16.2401C23.6966 16.2305 23.705 16.2213 23.7138 16.2126H23.7126Z" fill="white"/>
</svg>
