<svg width="48" height="48" viewBox="0 0 48 48" fill="none" xmlns="http://www.w3.org/2000/svg">
<path d="M42.4382 32.5452L32.052 30.8158C32.0314 30.8138 31.9176 30.7985 31.7544 30.7985C30.779 30.7985 30.1291 31.3102 30.0514 32.1377C29.9947 32.5202 29.951 32.9162 29.9093 33.3007C29.8205 34.1018 29.7293 34.9298 29.5094 35.657C29.4581 35.8294 29.3506 36.1913 28.5394 36.1913C27.7627 36.1913 26.7682 35.8634 26.041 35.623C25.8346 35.5567 25.6488 35.4943 25.4918 35.4487C20.5728 34.0001 16.0512 30.0142 13.9766 25.2938C13.9085 25.1402 13.8211 24.9583 13.7246 24.7558C13.308 23.8884 12.6106 22.4374 12.8798 21.7001C12.9422 21.5316 13.0541 21.4198 13.2418 21.3343C13.9349 21.0238 14.7437 20.8246 15.5261 20.6316C15.901 20.539 16.2893 20.442 16.6627 20.3359C17.0568 20.2452 17.3654 20.0273 17.5608 19.7052C17.9414 19.0764 17.735 18.2729 17.7067 18.1706L14.6458 8.14248L14.6362 8.11225C14.4826 7.69753 14.064 7.20312 12.9408 7.20312C12.2059 7.20312 11.4389 7.41336 11.2776 7.46088C10.2072 7.67496 1.96705 9.45193 2.41825 13.3937C2.50561 14.1569 2.64001 14.9604 2.83297 15.8489C3.82561 20.4521 5.01697 24.3257 6.47761 27.6938C8.50273 32.3671 12.0504 36.6348 16.4678 39.715C20.6222 42.6113 25.9694 43.8218 30.6523 44.623C33.3931 45.0929 36.1306 45.3391 38.7883 45.354H38.8018C42.7646 45.282 43.4525 36.8902 43.524 35.7934C43.6109 35.2462 43.8989 32.8802 42.4382 32.5452ZM42.3989 35.6364L42.3912 35.693C42.251 37.8886 41.2867 44.1626 38.7864 44.2174C36.193 44.202 33.5222 43.9615 30.8458 43.5031C26.2862 42.7226 21.0902 41.5519 17.1178 38.7823C12.8707 35.8217 9.46273 31.7225 7.51921 27.2402C6.09073 23.9422 4.92049 20.1367 3.94273 15.6074C3.75889 14.7569 3.63025 13.9898 3.54673 13.2622C3.26257 10.7786 9.36385 8.99641 11.5234 8.57017L11.5781 8.5548C11.7768 8.49624 12.4075 8.33881 12.9398 8.33881C13.3186 8.33881 13.5269 8.4204 13.5648 8.49624L16.6147 18.4865C16.643 18.5906 16.6925 18.9449 16.5883 19.1172C16.571 19.1436 16.5389 19.1988 16.4006 19.229L16.3627 19.2386C16.0066 19.3409 15.6408 19.4321 15.2525 19.5266C14.423 19.7311 13.5629 19.9433 12.7747 20.2975C12.3106 20.5058 11.9774 20.8562 11.8123 21.3108C11.3784 22.495 12.1723 24.1505 12.6989 25.2473C12.7896 25.4369 12.8712 25.6073 12.9355 25.7494C15.1387 30.7634 19.9426 34.999 25.1688 36.5393C25.3166 36.581 25.4909 36.6396 25.6838 36.702C26.485 36.9655 27.5798 37.327 28.5384 37.327C29.9798 37.327 30.4478 36.4841 30.5976 35.982C30.8458 35.1559 30.9422 34.2751 31.0373 33.4246C31.081 33.0286 31.1227 32.6537 31.1774 32.2879L31.1832 32.2481C31.1909 32.1554 31.2077 31.9337 31.7534 31.9337C31.8312 31.9337 31.884 31.9414 31.8821 31.9394L42.1925 33.654C42.4382 33.7366 42.5443 34.7426 42.3989 35.6364Z" fill="#3A6FE8"/>
<path d="M22.6274 16.2133C22.6396 16.1971 23.8124 14.6233 24.294 13.573V3.00531C24.294 2.64634 24.4237 2.29471 24.659 2.01416C24.9933 1.61371 25.4973 1.38477 26.0422 1.38477H43.4541C43.9899 1.38477 44.4888 1.60738 44.822 1.99468C45.0673 2.27928 45.2034 2.63825 45.2034 3.00531V13.7898C45.2034 14.6823 44.4183 15.4093 43.4541 15.4093H26.768C26.2048 16.0549 24.9246 17.2993 23.4188 17.2993C23.2993 17.2993 23.1797 17.2912 23.0619 17.276L23.0088 17.2639C22.9403 17.2416 22.5936 17.1144 22.4946 16.7951C22.4536 16.6605 22.4432 16.4503 22.6274 16.2133ZM23.1784 16.675C23.2581 16.6851 23.339 16.6891 23.4186 16.6891C24.7936 16.6891 26.0399 15.3269 26.3895 14.909L26.4816 14.7992H43.4541C44.0807 14.7992 44.59 14.3458 44.59 13.7895V3.00531C44.59 2.78067 44.5094 2.56919 44.356 2.39135C44.1392 2.13913 43.81 1.99494 43.4541 1.99494H26.0422C25.6802 1.99494 25.348 2.14343 25.1302 2.40475C24.9839 2.57855 24.9073 2.78598 24.9073 3.00556V13.7035L24.8819 13.7615C24.3901 14.8728 23.1716 16.5085 23.1164 16.5816C23.1031 16.5988 23.095 16.6122 23.0899 16.6213C23.11 16.6393 23.1456 16.6605 23.1784 16.675Z" fill="#3A6FE8"/>
<path d="M27.9794 10.8891C27.9794 11.0568 28.1162 11.1942 28.2862 11.1942H40.8612C41.0308 11.1942 41.168 11.0568 41.168 10.8891C41.168 10.7203 41.0308 10.584 40.8612 10.584H28.2859C28.1162 10.584 27.9794 10.7203 27.9794 10.8891Z" fill="#3A6FE8"/>
<path d="M27.9794 8.32462C27.9794 8.49335 28.1162 8.6297 28.2862 8.6297H40.8612C41.0308 8.6297 41.168 8.4936 41.168 8.32462C41.168 8.15588 41.0308 8.01953 40.8612 8.01953H28.2859C28.1162 8.01953 27.9794 8.15588 27.9794 8.32462Z" fill="#3A6FE8"/>
<path d="M41.168 5.76212C41.168 5.5944 41.0308 5.45703 40.8612 5.45703H28.2859C28.1162 5.45703 27.9791 5.5944 27.9791 5.76212C27.9791 5.93085 28.116 6.0672 28.2859 6.0672H40.8612C41.0308 6.06695 41.168 5.93085 41.168 5.76212Z" fill="#3A6FE8"/>
<path d="M27.9794 5.76212C27.9794 5.93085 28.1162 6.0672 28.2862 6.0672H40.8612C41.0308 6.0672 41.168 5.93085 41.168 5.76212C41.168 5.5944 41.0308 5.45703 40.8612 5.45703H28.2859C28.1162 5.45703 27.9794 5.59414 27.9794 5.76212Z" fill="#3A6FE8"/>
<path d="M27.9794 8.32657C27.9794 8.4953 28.1162 8.63166 28.2862 8.63166H40.8612C41.0308 8.63166 41.168 8.49556 41.168 8.32657C41.168 8.15784 41.0308 8.02148 40.8612 8.02148H28.2859C28.1162 8.02148 27.9794 8.15784 27.9794 8.32657Z" fill="#3A6FE8"/>
<path d="M27.9794 10.8891C27.9794 11.0568 28.1162 11.1942 28.2862 11.1942H40.8612C41.0308 11.1942 41.168 11.0568 41.168 10.8891C41.168 10.7203 41.0308 10.584 40.8612 10.584H28.2859C28.1162 10.584 27.9794 10.7203 27.9794 10.8891Z" fill="#3A6FE8"/>
</svg>
