<svg width="20" height="20" viewBox="0 0 20 20" xmlns="http://www.w3.org/2000/svg">
<path fill-rule="evenodd" clip-rule="evenodd" d="M5.67523 12.899L0.295233 18.279C0.106133 18.4682 -4.79946e-05 18.7248 4.57764e-05 18.9923C0.000139547 19.2599 0.106501 19.5164 0.295732 19.7055C0.484964 19.8946 0.741566 20.0008 1.00909 20.0007C1.27661 20.0006 1.53313 19.8942 1.72223 19.705L7.10223 14.325C8.71052 15.5707 10.733 16.1569 12.7581 15.9643C14.7833 15.7718 16.659 14.815 18.0038 13.2886C19.3485 11.7622 20.0612 9.7808 19.997 7.74753C19.9327 5.71427 19.0963 3.78185 17.6578 2.34339C16.2194 0.904939 14.287 0.0685019 12.2537 0.00424047C10.2204 -0.0600209 8.23904 0.652721 6.71262 1.99747C5.1862 3.34222 4.22941 5.21796 4.03688 7.24312C3.84435 9.26827 4.43056 11.2907 5.67623 12.899H5.67523ZM12.0002 14C10.4089 14 8.88281 13.3678 7.75759 12.2426C6.63237 11.1174 6.00023 9.59129 6.00023 7.99999C6.00023 6.40869 6.63237 4.88257 7.75759 3.75735C8.88281 2.63213 10.4089 1.99999 12.0002 1.99999C13.5915 1.99999 15.1177 2.63213 16.2429 3.75735C17.3681 4.88257 18.0002 6.40869 18.0002 7.99999C18.0002 9.59129 17.3681 11.1174 16.2429 12.2426C15.1177 13.3678 13.5915 14 12.0002 14V14Z"/>
</svg>
