<svg width="20" height="20" viewBox="0 0 20 20" xmlns="http://www.w3.org/2000/svg">
<g><g transform="translate(0.000000,511.000000) scale(0.100000,-0.100000)"><path d="M4241.7,3252.2c-510.9-1040.4-760.5-1525.6-793.1-1539.6c-25.7-9.3-786.1-126-1691.2-256.6c-905.1-130.6-1649.2-240.3-1656.2-247.3c-11.7-9.3,39.7-60.6,1388-1374c564.5-548.2,1028.7-1017.1,1033.4-1038.1c4.7-21-121.3-779.1-277.6-1686.6c-154-907.4-277.6-1653.9-272.9-1660.9c7-4.7,690.5,347.6,1518.6,783.8l1509.3,793.1L6509.2-3767c828.1-436.2,1511.6-788.5,1518.6-783.8c4.7,7-119,753.5-275.3,1660.9c-154,907.4-279.9,1667.9-275.3,1688.9c4.7,21,473.5,492.2,1045.1,1047.4c1355.3,1318,1388,1353,1376.3,1362.3c-7,7-751.1,116.6-1656.2,247.3c-905.1,130.6-1665.6,247.3-1691.2,256.6c-32.7,14-282.3,499.2-793.1,1539.6c-410.6,835.1-751.2,1518.6-758.1,1518.6S4652.3,4087.3,4241.7,3252.2z M5639.1,2617.7l622.9-1264.3l1357.7-195.9c746.5-109.6,1381-203,1409-209.9c44.3-11.7-88.6-151.6-961.1-1000.7C7509.9-596.8,7052.7-1054,7052.7-1070.4c0-16.3,105-643.8,233.3-1392.6c128.3-748.8,231-1367,228.6-1376.3c-4.7-9.3-571.5,282.2-1262,643.8l-1252.7,660.2l-1255-660.2c-688.2-361.6-1255-653.2-1259.7-643.8c-2.3,9.3,100.3,629.8,228.6,1378.6c128.3,751.1,233.3,1376.3,233.3,1392.6c0,14-457.2,471.2-1014.7,1014.7C1055.2,800.5,924.6,935.8,971.3,947.5c28,7,662.5,100.3,1409,209.9l1357.6,195.9l622.8,1264.3c342.9,697.5,629.8,1266.7,639.2,1266.7C5009.2,3884.4,5296.2,3315.2,5639.1,2617.7z"/></g></g>
</svg>
