<svg width="70" height="220" viewBox="0 0 70 220" fill="none" xmlns="http://www.w3.org/2000/svg">
<circle cx="35" cy="185" r="34.5" stroke="#3A6FE8"/>
<path d="M42.1912 170.5H35.8096L42.9471 184.752L43.0592 184.976L42.9471 185.2L35.8096 199.452H42.1912L49.4408 184.976L42.1912 170.5ZM27.9471 184.752L28.0592 184.976L27.9471 185.2L20.8096 199.452H27.1912L34.4408 184.976L27.1912 170.5H20.8096L27.9471 184.752Z" stroke="#3A6FE8"/>
<line x1="35.5" y1="69" x2="35.5" y2="150" stroke="#3A6FE8"/>
<circle cx="35" cy="35" r="34.5" stroke="#3A6FE8"/>
<path d="M42.1912 20.5H35.8096L42.9471 34.7521L43.0592 34.976L42.9471 35.1999L35.8096 49.452H42.1912L49.4408 34.976L42.1912 20.5ZM27.9471 34.7521L28.0592 34.976L27.9471 35.1999L20.8096 49.452H27.1912L34.4408 34.976L27.1912 20.5H20.8096L27.9471 34.7521Z" stroke="#3A6FE8"/>
</svg>
