<svg width="56" height="288" fill="none" xmlns="http://www.w3.org/2000/svg"><circle cx="28" cy="144" r="27.5" stroke="#3A6FE8"/><g clip-path="url(#a)"><path d="M37.5 148.691v-3.881l-9.26 4.637-.224.112-.224-.112-9.26-4.637v3.881l9.484 4.75 9.484-4.75zm-9.26-9.244-.224.112-.224-.112-9.26-4.637v3.881l9.484 4.75 9.484-4.75v-3.881l-9.26 4.637z" stroke="#3A6FE8"/></g><circle cx="28" cy="260" r="27.5" stroke="#3A6FE8"/><path d="M32.691 250.5H28.81l4.637 9.26.112.224-.112.224-4.637 9.26h3.881l4.75-9.484-4.75-9.484zm-9.244 9.26.112.224-.112.224-4.637 9.26h3.881l4.75-9.484-4.75-9.484H18.81l4.637 9.26zM28.5 172v60M28.5 56v60" stroke="#3A6FE8"/><circle cx="28" cy="28" r="27.5" stroke="#3A6FE8"/><g clip-path="url(#b)"><path d="M32.691 18.5H28.81l4.637 9.26.112.224-.112.224-4.637 9.26h3.881l4.75-9.484-4.75-9.484zm-9.244 9.26.112.224-.112.224-4.637 9.26h3.881l4.75-9.484-4.75-9.484H18.81l4.637 9.26z" stroke="#3A6FE8"/></g><defs><clipPath id="a"><path fill="#fff" transform="matrix(0 -1 -1 0 38 154)" d="M0 0h20v20H0z"/></clipPath><clipPath id="b"><path fill="#fff" transform="matrix(-1 0 0 1 38 18)" d="M0 0h20v20H0z"/></clipPath></defs></svg>